<?xml version="1.0" encoding="UTF-8" standalone="no"?>
<svg width="50px" height="50px" viewBox="0 0 50 50" version="1.1" xmlns="http://www.w3.org/2000/svg" xmlns:xlink="http://www.w3.org/1999/xlink">
    <!-- Generator: Sketch 3.7.2 (28276) - http://www.bohemiancoding.com/sketch -->
    <title>email_on</title>
    <desc>Created with Sketch.</desc>
    <defs></defs>
    <g id="Page-1" stroke="none" stroke-width="1" fill="none" fill-rule="evenodd">
        <g id="Desktop" transform="translate(-1088.000000, -1102.000000)" stroke="#777677">
            <g id="email_on" transform="translate(1088.000000, 1102.000000)">
                <g id="Group" transform="translate(6.000000, 6.000000)">
                    <g id="Icons">
                        <path d="M9.56480153,32 L1.53906352,32 C0.68866571,32 0,31.2284444 0,30.2773333 L0,1.72266667 C0,0.771555556 0.68866571,0 1.53906352,0 L38.4609365,0 C39.3113343,0 40,0.771555556 40,1.72266667 L40,24" id="Shape"></path>
                        <polyline id="Shape" points="0 1 20 20 40 1"></polyline>
                        <path d="M0.535714286,31.46875 L15,15" id="Shape"></path>
                        <path d="M40,29.5 C40,29.5 36.4706148,26.4457243 34.7059222,24.9185865 C32.4261704,22.9457243 27.8666667,19 27.8666667,19 L27.8666667,26 L14,26 L14,33 L27.8666667,33 L27.8666667,40 L40,29.5 Z" id="Shape"></path>
                    </g>
                </g>
            </g>
        </g>
    </g>
</svg>